# xmcd
#
# Track frame offsets: 
#        150
#        23180
#        39830
#        66982
#        84401
#        99907
#        113780
#        146276
#        165450
#        186389
#        203496
#        227068
#
# Disc length: 3350 seconds
#
# Revision: 0
# Processed by: cddbd v1.5.2PL0 Copyright (c) Steve Scherf et al.
# Submitted via: ExactAudioCopy v1.1
#
DISCID=900d140c
DTITLE=Arnaud Fradin and His Roots Combo - Steady Rollin' Man
DYEAR=2017
DGENRE=Blues
TTITLE0=Steady Rollin' Man
TTITLE1=Two Trains Runnin'
TTITLE2=If I Get Lucky
TTITLE3=I Can't Judge Nobody
TTITLE4=Illinois Blues
TTITLE5=Walk With Your Maker
TTITLE6=Don't Leave Me
TTITLE7=Big Mama's Door
TTITLE8=Hard Time Killin' Floor Blues
TTITLE9=Don't Think Twice It's Alright
TTITLE10=Don't Let Nobody Drag Your Spirit Down
TTITLE11=Good Morning Love
EXTD=
EXTT0=
EXTT1=
EXTT2=
EXTT3=
EXTT4=
EXTT5=
EXTT6=
EXTT7=
EXTT8=
EXTT9=
EXTT10=
EXTT11=
PLAYORDER=
